<?xml version="1.0" encoding="utf-8"?>
<svg width="35" height="35" viewBox="0 0 35 35" fill="none" xmlns="http://www.w3.org/2000/svg">
  <rect width="35" height="35" rx="17.5" style="fill: rgb(255, 255, 255);"/>
  <path d="M 7.642 16.651 C 7.165 16.651 6.778 16.986 6.778 17.401 C 6.778 17.815 7.165 18.151 7.642 18.151 L 7.642 16.651 Z M 7.642 18.151 L 25.571 18.151 L 25.571 16.651 L 7.642 16.651 L 7.642 18.151 Z" style="fill: rgb(198, 67, 19);"/>
  <g transform="matrix(0.376068, 0.376065, -0.707106, 0.707106, -0.446898, -2.889717)" style="transform-origin: 23.328px 17.7418px;">
    <path d="M 16.052 16.991 C 15.638 16.991 15.302 17.327 15.302 17.741 C 15.302 18.155 15.638 18.491 16.052 18.491 L 16.052 16.991 Z M 16.052 18.491 L 31.609 18.491 L 31.609 16.991 L 16.052 16.991 C 14.712 17.047 14.712 18.547 16.052 18.491 Z" style="fill: rgb(198, 67, 19);"/>
  </g>
  <g transform="matrix(0.376065, -0.376068, 0.707106, 0.707106, -1.084068, 3.921095)" style="transform-origin: 21.248px 14.948px;">
    <path d="M 16.052 16.991 C 15.638 16.991 15.302 17.327 15.302 17.741 C 15.302 18.155 15.638 18.491 16.052 18.491 L 16.052 16.991 Z M 16.052 18.491 L 31.609 18.491 L 31.609 16.991 L 16.052 16.991 C 14.712 17.047 14.712 18.547 16.052 18.491 Z" style="fill: rgb(198, 67, 19);"/>
  </g>
</svg>